<svg width="20" height="20" viewBox="0 0 34 34" fill="none" xmlns="http://www.w3.org/2000/svg">
<path d="M26.6667 26.6667C27.5507 26.6667 28.3986 27.0179 29.0237 27.643C29.6488 28.2681 30 29.1159 30 30C30 30.8841 29.6488 31.7319 29.0237 32.357C28.3986 32.9821 27.5507 33.3333 26.6667 33.3333C25.7826 33.3333 24.9348 32.9821 24.3096 32.357C23.6845 31.7319 23.3333 30.8841 23.3333 30C23.3333 28.15 24.8167 26.6667 26.6667 26.6667ZM0 0H5.45L7.01667 3.33333H31.6667C32.1087 3.33333 32.5326 3.50893 32.8452 3.82149C33.1577 4.13405 33.3333 4.55797 33.3333 5C33.3333 5.28333 33.25 5.56667 33.1333 5.83333L27.1667 16.6167C26.6 17.6333 25.5 18.3333 24.25 18.3333H11.8333L10.3333 21.05L10.2833 21.25C10.2833 21.3605 10.3272 21.4665 10.4054 21.5446C10.4835 21.6228 10.5895 21.6667 10.7 21.6667H30V25H10C9.11594 25 8.2681 24.6488 7.64298 24.0237C7.01786 23.3986 6.66667 22.5507 6.66667 21.6667C6.66667 21.0833 6.81667 20.5333 7.06667 20.0667L9.33333 15.9833L3.33333 3.33333H0V0ZM10 26.6667C10.8841 26.6667 11.7319 27.0179 12.357 27.643C12.9821 28.2681 13.3333 29.1159 13.3333 30C13.3333 30.8841 12.9821 31.7319 12.357 32.357C11.7319 32.9821 10.8841 33.3333 10 33.3333C9.11594 33.3333 8.2681 32.9821 7.64298 32.357C7.01786 31.7319 6.66667 30.8841 6.66667 30C6.66667 28.15 8.15 26.6667 10 26.6667ZM25 15L29.6333 6.66667H8.56667L12.5 15H25Z" fill="black"/>
</svg>
