<svg width="20" height="20" viewBox="0 0 19 19" fill="none" xmlns="http://www.w3.org/2000/svg">
<path fill-rule="evenodd" clip-rule="evenodd" d="M14.3233 12.9048C15.5703 11.2971 16.158 9.27482 15.9668 7.24925C15.7757 5.22367 14.82 3.34701 13.2943 2.00104C11.7685 0.655069 9.78735 -0.0590965 7.75375 0.00383158C5.72015 0.0667597 3.7869 0.902055 2.34731 2.33978C0.906468 3.77851 0.068442 5.7125 0.00401015 7.74765C-0.0604217 9.78279 0.65359 11.7659 2.00054 13.2929C3.34749 14.8199 5.22601 15.7758 7.25329 15.9659C9.28056 16.1559 11.304 15.5658 12.9113 14.3158L12.9543 14.3608L17.1963 18.6038C17.2892 18.6967 17.3995 18.7704 17.5209 18.8207C17.6423 18.871 17.7724 18.8968 17.9038 18.8968C18.0352 18.8968 18.1653 18.871 18.2867 18.8207C18.4081 18.7704 18.5184 18.6967 18.6113 18.6038C18.7042 18.5109 18.7779 18.4006 18.8282 18.2792C18.8785 18.1578 18.9044 18.0277 18.9044 17.8963C18.9044 17.7649 18.8785 17.6348 18.8282 17.5134C18.7779 17.392 18.7042 17.2817 18.6113 17.1888L14.3683 12.9468C14.3537 12.9324 14.3387 12.9184 14.3233 12.9048ZM12.2473 3.75478C12.8119 4.31026 13.2609 4.97203 13.5685 5.70192C13.8761 6.43181 14.0361 7.21537 14.0393 8.0074C14.0425 8.79944 13.8889 9.58428 13.5873 10.3166C13.2857 11.049 12.8421 11.7144 12.282 12.2745C11.7219 12.8345 11.0565 13.2782 10.3242 13.5798C9.59181 13.8814 8.80697 14.035 8.01493 14.0318C7.2229 14.0286 6.43933 13.8686 5.70945 13.561C4.97956 13.2534 4.31779 12.8044 3.76231 12.2398C2.65223 11.1115 2.03297 9.59023 2.03941 8.0074C2.04586 6.42458 2.67749 4.90843 3.79672 3.78919C4.91596 2.66996 6.43211 2.03833 8.01493 2.03188C9.59775 2.02544 11.119 2.6447 12.2473 3.75478Z" fill="black"/>
</svg>
